<svg xmlns="http://www.w3.org/2000/svg" width="200" height="200"><path fill-rule="evenodd" clip-rule="evenodd" fill="#F37621" d="M87.757 77.939L54.909 135.97h54.501l32.848-58.031z"/><path fill="#FFF" d="M94.862 106.232l13.267-13.266a.83.83 0 0 0 0-1.176.83.83 0 0 0-1.176 0l-13.858 13.857a.828.828 0 0 0 0 1.176l13.858 13.852a.836.836 0 0 0 .585.246c.208 0 .424-.08.584-.246a.83.83 0 0 0 0-1.176l-13.26-13.267z"/><path opacity=".5" fill="#FFF" d="M88.862 106.232l13.267-13.266a.83.83 0 0 0 0-1.176.83.83 0 0 0-1.176 0l-13.858 13.857a.828.828 0 0 0 0 1.176l13.858 13.852a.836.836 0 0 0 .585.246c.208 0 .424-.08.584-.246a.83.83 0 0 0 0-1.176l-13.26-13.267z"/><path fill="none" d="M227 194.657h34V259h-34z"/></svg>