<svg xmlns="http://www.w3.org/2000/svg" width="200" height="200"><path fill-rule="evenodd" clip-rule="evenodd" fill="#F37621" d="M87.757 77.939L54.909 135.97h54.501l32.848-58.031z"/><path fill="#FFF" d="M100.36 106.232L87.094 92.967a.83.83 0 0 1 0-1.176.83.83 0 0 1 1.176 0l13.857 13.857a.828.828 0 0 1 0 1.176L88.27 120.675a.836.836 0 0 1-.585.246.812.812 0 0 1-.584-.246.83.83 0 0 1 0-1.176l13.259-13.267z"/><path opacity=".5" fill="#FFF" d="M106.36 106.232L93.094 92.967a.83.83 0 0 1 0-1.176.83.83 0 0 1 1.176 0l13.857 13.857a.828.828 0 0 1 0 1.176L94.27 120.675a.836.836 0 0 1-.585.246.812.812 0 0 1-.584-.246.83.83 0 0 1 0-1.176l13.259-13.267z"/><path fill="none" d="M227 194.657h34V259h-34z"/></svg>